<?xml version="1.0" encoding="UTF-8" standalone="no"?>
<svg width="80px" height="80px" viewBox="0 0 80 80" version="1.1" xmlns="http://www.w3.org/2000/svg" xmlns:xlink="http://www.w3.org/1999/xlink">
    <defs></defs>
    <g id="Page-1" stroke="none" stroke-width="1" fill="none" fill-rule="evenodd">
        <path d="M65.7201447,56.3064396 C64.8506941,57.6866391 62.9309838,57.9018796 61.7809955,56.7469634 L58.2515718,53.2024157 C57.4521204,52.3995386 57.2672574,51.1555948 57.8269815,50.168691 C59.5285859,47.1688946 60.5031706,43.6995318 60.5031706,40 C60.5031706,30.4629165 54.0453982,22.4447309 45.282514,20.1044989 C44.1822549,19.8108163 43.4263166,18.7956843 43.4263166,17.652168 L43.4263166,12.6489788 C43.4263166,11.0215105 44.9249501,9.81366628 46.5081773,10.1602769 C60.1772279,13.1530162 70.4127999,25.3750424 70.4127999,40 C70.4127999,45.9960643 68.6922768,51.5882473 65.7201447,56.3064396 Z M55.402952,66.3405035 C50.8854302,69.0107892 45.6211592,70.5432585 40.0001351,70.5432585 C34.0296551,70.5432585 28.4613332,68.8150913 23.7632727,65.8302232 C22.3889623,64.9570469 22.1746401,63.0291104 23.3243582,61.8744656 L26.8537819,58.3299179 C27.6535035,57.5267694 28.8921396,57.3411142 29.8745621,57.9032368 C32.8615588,59.6124042 36.3163887,60.5908937 40.0001351,60.5908937 C43.3682091,60.5908937 46.5446634,59.771731 49.347608,58.3253037 C50.3394898,57.8133949 51.5429911,57.9805931 52.3313615,58.7726132 L55.8956497,62.3521748 C57.0640162,63.5252765 56.8267214,65.4988125 55.402952,66.3405035 Z M21.7530228,49.387528 C22.2624771,50.3836602 22.0959923,51.5923187 21.3076219,52.3840673 L17.7433337,55.963629 C16.5752374,57.1370021 14.6098519,56.8986904 13.7720226,55.46882 C11.1128603,50.93194 9.58720013,45.6451109 9.58720013,40 C9.58720013,25.8736514 19.1368331,13.9873787 32.1061611,10.4963018 C33.7245231,10.0606636 35.3182907,11.2693221 35.3182907,12.9521612 L35.3182907,18.0289068 C35.3182907,19.118138 34.6320814,20.0985275 33.6015513,20.4383524 C25.4121749,23.1376807 19.4970997,30.8727692 19.4970997,40 C19.4970997,43.382778 20.3124968,46.5725724 21.7530228,49.387528 Z M40.0001351,23.4077492 C49.1246373,23.4077492 56.5215893,30.8363982 56.5215893,40 C56.5215893,49.1636018 49.1246373,56.5922508 40.0001351,56.5922508 C30.8753627,56.5922508 23.4784107,49.1636018 23.4784107,40 C23.4784107,30.8363982 30.8753627,23.4077492 40.0001351,23.4077492 Z M76.4324686,41.7224673 L80,40 L76.4324686,38.2775327 C75.12059,37.6440252 74.9535647,35.8349732 76.1273365,34.970211 L79.3189258,32.6185791 L75.4970727,31.583633 C74.0914112,31.2030943 73.5965514,29.4556558 74.5919467,28.388953 L77.2989463,25.4884983 L73.3527701,25.1763588 C71.9014334,25.0615458 71.0952254,23.4354346 71.8784607,22.2031621 L74.0087094,18.8524123 L70.072533,19.2739364 C68.6249802,19.4289204 67.5349912,17.9792359 68.0795803,16.6234647 L69.5603761,12.93669 L65.7685226,14.077492 C64.3739422,14.4968447 63.0369287,13.2729864 63.3242231,11.8398589 L64.1055665,7.94245776 L60.5866832,9.76345253 C59.2926423,10.4333311 57.7545498,9.47682703 57.7748198,8.01492841 L57.8296842,4.03989957 L54.7040402,6.47947343 C53.5545924,7.37653525 51.8675824,6.720228 51.6200174,5.27950058 L50.9465107,1.36201398 L48.3205913,4.33683925 C47.3546552,5.43068467 45.5765651,5.09683111 45.0695432,3.72640293 L43.6909085,0 L41.6536319,3.40856348 C40.9044503,4.66200719 39.0955497,4.66200719 38.3463681,3.40856348 L36.3093617,0 L34.9304568,3.72640293 C34.4234349,5.09683111 32.6453448,5.43068467 31.6796789,4.33683925 L29.0534893,1.36201398 L28.3799826,5.27950058 C28.1324176,6.720228 26.4456779,7.37653525 25.2962301,6.47947343 L22.1705861,4.03989957 L22.2251802,8.01492841 C22.2454502,9.47682703 20.7073577,10.4333311 19.4133168,9.76345253 L15.8947038,7.94245776 L16.6757769,11.8398589 C16.9630713,13.2729864 15.6260578,14.4968447 14.2317477,14.077492 L10.4396239,12.93669 L11.92069,16.6234647 C12.4652791,17.9792359 11.3750198,19.4289204 9.92746695,19.2739364 L5.99129063,18.8524123 L8.12153931,22.2031621 C8.90504488,23.4354346 8.09856657,25.0615458 6.64750019,25.1763588 L2.70105371,25.4884983 L5.4080533,28.388953 C6.40371888,29.4556558 5.90858876,31.2030943 4.5031976,31.583633 L0.681074178,32.6185791 L3.87266345,34.970211 C5.04643534,35.8349732 4.87941001,37.6440252 3.56753141,38.2775327 L0,40 L3.56753141,41.7224673 C4.87941001,42.3559748 5.04643534,44.1650268 3.87266345,45.029789 L0.681074178,47.3814209 L4.5031976,48.416367 C5.90858876,48.7969057 6.40371888,50.5443442 5.4080533,51.611047 L2.70105371,54.5115017 L6.64750019,54.8236412 C8.09856657,54.9384542 8.90504488,56.5645654 8.12153931,57.7968379 L5.99129063,61.1475877 L9.92746695,60.7260636 C11.3750198,60.5710796 12.4652791,62.0207641 11.92069,63.3765353 L10.4396239,67.06331 L14.2317477,65.922508 C15.6260578,65.5031553 16.9630713,66.7270136 16.6757769,68.1601411 L15.8947038,72.0575422 L19.4133168,70.2365475 C20.7073577,69.5666689 22.2454502,70.523173 22.2251802,71.9850716 L22.1705861,75.9601004 L25.2962301,73.5205266 C26.4456779,72.6234647 28.1324176,73.279772 28.3799826,74.7204994 L29.0534893,78.637986 L31.6796789,75.6631608 C32.6453448,74.5693153 34.4234349,74.9031689 34.9304568,76.2735971 L36.3093617,80 L38.3463681,76.5914365 C39.0955497,75.3379928 40.9044503,75.3379928 41.6536319,76.5914365 L43.6909085,80 L45.0695432,76.2735971 C45.5765651,74.9031689 47.3546552,74.5693153 48.3205913,75.6631608 L50.9465107,78.637986 L51.6200174,74.7204994 C51.8675824,73.279772 53.5545924,72.6234647 54.7040402,73.5205266 L57.8296842,75.9601004 L57.7748198,71.9850716 C57.7545498,70.523173 59.2926423,69.5666689 60.5866832,70.2365475 L64.1055665,72.0575422 L63.3242231,68.1601411 C63.0369287,66.7270136 64.3739422,65.5031553 65.7685226,65.922508 L69.5603761,67.06331 L68.0795803,63.3765353 C67.5349912,62.0207641 68.6249802,60.5710796 70.072533,60.7260636 L74.0087094,61.1475877 L71.8784607,57.7968379 C71.0952254,56.5645654 71.9014334,54.9384542 73.3527701,54.8236412 L77.2989463,54.5115017 L74.5919467,51.611047 C73.5965514,50.5443442 74.0914112,48.7969057 75.4970727,48.416367 L79.3189258,47.3814209 L76.1273365,45.029789 C74.9535647,44.1650268 75.12059,42.3559748 76.4324686,41.7224673 L76.4324686,41.7224673 Z" id="Fill-4" fill="#02B3E4"></path>
    </g>
</svg>